<svg width="148" height="150" viewBox="0 0 148 150" fill="none" xmlns="http://www.w3.org/2000/svg">
<g filter="url(#filter0_di)">
<path d="M41.4489 97.3988C41.4489 102.301 45.9066 106.279 51.401 106.279H124.383C129.877 106.279 134.335 102.301 134.335 97.3988V47.0782H41.4489V97.3988ZM107.796 61.1384C107.796 59.9174 108.916 58.9184 110.284 58.9184H118.577C119.946 58.9184 121.065 59.9174 121.065 61.1384V68.5385C121.065 69.7595 119.946 70.7585 118.577 70.7585H110.284C108.916 70.7585 107.796 69.7595 107.796 68.5385V61.1384ZM107.796 84.8187C107.796 83.5977 108.916 82.5987 110.284 82.5987H118.577C119.946 82.5987 121.065 83.5977 121.065 84.8187V92.2188C121.065 93.4398 119.946 94.4388 118.577 94.4388H110.284C108.916 94.4388 107.796 93.4398 107.796 92.2188V84.8187ZM81.2571 61.1384C81.2571 59.9174 82.3768 58.9184 83.7452 58.9184H92.0385C93.4069 58.9184 94.5266 59.9174 94.5266 61.1384V68.5385C94.5266 69.7595 93.4069 70.7585 92.0385 70.7585H83.7452C82.3768 70.7585 81.2571 69.7595 81.2571 68.5385V61.1384ZM81.2571 84.8187C81.2571 83.5977 82.3768 82.5987 83.7452 82.5987H92.0385C93.4069 82.5987 94.5266 83.5977 94.5266 84.8187V92.2188C94.5266 93.4398 93.4069 94.4388 92.0385 94.4388H83.7452C82.3768 94.4388 81.2571 93.4398 81.2571 92.2188V84.8187ZM54.7183 61.1384C54.7183 59.9174 55.8379 58.9184 57.2063 58.9184H65.4997C66.8681 58.9184 67.9877 59.9174 67.9877 61.1384V68.5385C67.9877 69.7595 66.8681 70.7585 65.4997 70.7585H57.2063C55.8379 70.7585 54.7183 69.7595 54.7183 68.5385V61.1384ZM54.7183 84.8187C54.7183 83.5977 55.8379 82.5987 57.2063 82.5987H65.4997C66.8681 82.5987 67.9877 83.5977 67.9877 84.8187V92.2188C67.9877 93.4398 66.8681 94.4388 65.4997 94.4388H57.2063C55.8379 94.4388 54.7183 93.4398 54.7183 92.2188V84.8187ZM124.383 23.3979H114.431V14.5178C114.431 12.8898 112.938 11.5578 111.113 11.5578H104.479C102.654 11.5578 101.161 12.8898 101.161 14.5178V23.3979H74.6224V14.5178C74.6224 12.8898 73.1296 11.5578 71.3051 11.5578H64.6704C62.8458 11.5578 61.353 12.8898 61.353 14.5178V23.3979H51.401C45.9066 23.3979 41.4489 27.3755 41.4489 32.278V41.1582H134.335V32.278C134.335 27.3755 129.877 23.3979 124.383 23.3979Z" fill="#ECEDFA"/>
</g>
<defs>
<filter id="filter0_di" x="0.448914" y="0.5578" width="146.886" height="148.721" filterUnits="userSpaceOnUse" color-interpolation-filters="sRGB">
<feFlood flood-opacity="0" result="BackgroundImageFix"/>
<feColorMatrix in="SourceAlpha" type="matrix" values="0 0 0 0 0 0 0 0 0 0 0 0 0 0 0 0 0 0 127 0"/>
<feOffset dx="-14" dy="16"/>
<feGaussianBlur stdDeviation="13.5"/>
<feColorMatrix type="matrix" values="0 0 0 0 0 0 0 0 0 0 0 0 0 0 0 0 0 0 0.25 0"/>
<feBlend mode="normal" in2="BackgroundImageFix" result="effect1_dropShadow"/>
<feBlend mode="normal" in="SourceGraphic" in2="effect1_dropShadow" result="shape"/>
<feColorMatrix in="SourceAlpha" type="matrix" values="0 0 0 0 0 0 0 0 0 0 0 0 0 0 0 0 0 0 127 0" result="hardAlpha"/>
<feOffset dx="3" dy="-2"/>
<feGaussianBlur stdDeviation="2"/>
<feComposite in2="hardAlpha" operator="arithmetic" k2="-1" k3="1"/>
<feColorMatrix type="matrix" values="0 0 0 0 0 0 0 0 0 0 0 0 0 0 0 0 0 0 0.25 0"/>
<feBlend mode="normal" in2="shape" result="effect2_innerShadow"/>
</filter>
</defs>
</svg>
