<svg width="130" height="89" viewBox="0 0 130 89" fill="none" xmlns="http://www.w3.org/2000/svg">
<g filter="url(#filter0_di)">
<path d="M108.612 9.17149C93.174 0.840117 72.6546 -1.05628 55.6089 1.4564C34.4333 4.57789 30.508 7.62498 23.2836 13.0865V14.4231C5.92082 28.8796 14.1747 44.9753 23.2836 52.5756C25.6656 61.4905 11 71.6691 11 71.6691C15.128 73.6622 36.4401 80.5512 55.6089 65.6045C72.6164 68.1008 93.1359 66.2208 108.612 57.8747C132.545 45.3949 132.623 21.7169 108.612 9.17149ZM70.0357 57.7944C64.0673 57.8084 58.1225 57.1818 52.3539 55.9308L48.3865 59.0597C46.1827 60.8053 43.7152 62.314 41.0436 63.5491C37.8024 64.8821 34.2812 65.7013 30.6665 65.9635C30.8672 65.6717 31.0438 65.38 31.2224 65.1046C35.1918 59.0947 36.2621 53.7027 34.4333 48.9287C27.9052 44.731 23.998 39.3664 23.998 33.5001C23.998 20.0598 44.6157 9.17149 70.0357 9.17149C95.4557 9.17149 116.073 20.0598 116.073 33.5001C116.073 46.9405 95.4557 57.7944 70.0357 57.7944ZM47.949 39.2861C46.1264 39.3071 44.368 38.7372 43.0589 37.7012C41.7499 36.6652 40.9971 35.2476 40.9654 33.7591C40.8249 26.3194 54.5774 26.1571 54.7159 33.5805V33.664C54.7244 34.3964 54.556 35.123 54.2204 35.8022C53.8848 36.4814 53.3886 37.0999 52.7601 37.6224C52.1316 38.1448 51.3832 38.561 50.5577 38.847C49.7322 39.133 48.8457 39.2801 47.949 39.2861ZM62.7531 33.7591C62.5946 26.3194 76.3471 26.1407 76.5056 33.5641V33.664C76.5839 41.053 62.9116 41.1333 62.7531 33.7591ZM91.5264 39.2861C89.7037 39.3071 87.945 38.7372 86.6356 37.7013C85.3263 36.6654 84.573 35.2478 84.5408 33.7591C84.4023 26.3194 98.1548 26.1571 98.2933 33.5805V33.664C98.3047 34.3971 98.1383 35.1247 97.8038 35.805C97.4693 36.4853 96.9732 37.1047 96.3441 37.6276C95.7151 38.1506 94.9655 38.5666 94.1386 38.8518C93.3118 39.137 92.424 39.2824 91.5264 39.2861Z" fill="#ECEDFA"/>
</g>
<defs>
<filter id="filter0_di" x="0" y="-1.57477" width="129.591" height="90.5677" filterUnits="userSpaceOnUse" color-interpolation-filters="sRGB">
<feFlood flood-opacity="0" result="BackgroundImageFix"/>
<feColorMatrix in="SourceAlpha" type="matrix" values="0 0 0 0 0 0 0 0 0 0 0 0 0 0 0 0 0 0 127 0"/>
<feOffset dx="-4" dy="7"/>
<feGaussianBlur stdDeviation="3.5"/>
<feColorMatrix type="matrix" values="0 0 0 0 0 0 0 0 0 0 0 0 0 0 0 0 0 0 0.25 0"/>
<feBlend mode="normal" in2="BackgroundImageFix" result="effect1_dropShadow"/>
<feBlend mode="normal" in="SourceGraphic" in2="effect1_dropShadow" result="shape"/>
<feColorMatrix in="SourceAlpha" type="matrix" values="0 0 0 0 0 0 0 0 0 0 0 0 0 0 0 0 0 0 127 0" result="hardAlpha"/>
<feOffset dx="3" dy="-2"/>
<feGaussianBlur stdDeviation="2"/>
<feComposite in2="hardAlpha" operator="arithmetic" k2="-1" k3="1"/>
<feColorMatrix type="matrix" values="0 0 0 0 0.497104 0 0 0 0 0.527424 0 0 0 0 0.929167 0 0 0 1 0"/>
<feBlend mode="normal" in2="shape" result="effect2_innerShadow"/>
</filter>
</defs>
</svg>
